<svg xmlns="http://www.w3.org/2000/svg" viewBox="-1267.68 788.32 25.36 25.36" enable-background="new -1267.68 788.32 25.36 25.36"><circle cx="-1255" cy="801" r="4.227"/><path d="M-1242.396 795.773c-.136-3.019-1.284-5.161-3.36-6.337l-.303-.161c-.206-.103-.421-.198-.643-.283l-.34-.122c-.578-.191-1.207-.327-1.887-.406-.272-.031-.552-.054-.84-.067-.973-.045-1.47-.065-2.951-.073-.58-.003-1.31-.004-2.278-.004l-1.869.002-.211.001-1.183.01-.266.004-.244.005c-.509.012-.906.029-1.456.054-4.605.211-7.164 2.766-7.375 7.375l-.016.36-.022.544-.004.107c-.027.824-.035 1.742-.035 4.218 0 2.906.011 3.667.051 4.647l.026.582c.211 4.605 2.766 7.164 7.375 7.375.677.031 1.123.05 1.83.061l.429.006.503.004c.608.004 1.39.005 2.466.005l1.158-.001h.251l.671-.002.564-.003.326-.003c.977-.01 1.456-.03 2.259-.067.719-.033 1.388-.123 2.006-.27.247-.059.486-.126.717-.203.462-.153.891-.341 1.286-.565.692-.391 1.281-.89 1.765-1.493.276-.345.518-.723.724-1.135.516-1.03.811-2.27.876-3.71.062-1.352.077-1.785.077-5.228s-.016-3.875-.077-5.227zm-7.358-1.541c0-.84.682-1.522 1.523-1.522.84 0 1.521.682 1.521 1.522s-.681 1.522-1.521 1.522c-.841 0-1.523-.682-1.523-1.522zm1.265 6.768c0 3.597-2.915 6.512-6.511 6.512s-6.511-2.916-6.511-6.512 2.915-6.511 6.511-6.511 6.511 2.915 6.511 6.511z"/></svg>